<svg width="145" height="20" viewBox="0 0 145 20" fill="none" xmlns="http://www.w3.org/2000/svg">
<path d="M8.38341 0.29985C11.1226 0.29985 12.4923 1.61919 12.4923 4.25787V8.12594C12.4923 10.7646 11.1226 12.084 8.38341 12.084H4.63904V19.7002H0V0.29985H8.38341ZM7.85323 8.6057V3.77811C7.85323 3.61819 7.78696 3.47826 7.65441 3.35832C7.54396 3.23838 7.40037 3.17841 7.22365 3.17841H4.63904V9.2054H7.22365C7.40037 9.2054 7.54396 9.14543 7.65441 9.02549C7.78696 8.90555 7.85323 8.76562 7.85323 8.6057Z" fill="url(#paint0_linear_13_205)"/>
<path d="M23.3373 0C26.0766 0 27.4462 1.31934 27.4462 3.95802V19.7002H22.8071V13.1934H19.4604V19.7002H14.8214V3.95802C14.8214 1.31934 16.191 0 18.9302 0H23.3373ZM19.4604 9.95502H22.8071V3.44827C22.8071 3.28836 22.7409 3.14843 22.6083 3.02848C22.4979 2.90854 22.3543 2.84857 22.1776 2.84857H20.09C19.9133 2.84857 19.7586 2.90854 19.6261 3.02848C19.5156 3.14843 19.4604 3.28836 19.4604 3.44827V9.95502Z" fill="url(#paint1_linear_13_205)"/>
<path d="M44.2578 0.29985L40.6128 9.2054L44.9536 19.7002H40.2152L37.0341 12.024H35.543V19.7002H30.904V0.29985H35.543V8.42579H36.6696L40.0164 0.29985H44.2578Z" fill="url(#paint2_linear_13_205)"/>
<path d="M61.7479 0C64.4871 0 65.8568 1.31934 65.8568 3.95802V19.7002H61.2177V13.1934H57.871V19.7002H53.2319V3.95802C53.2319 1.31934 54.6016 0 57.3408 0H61.7479ZM57.871 9.95502H61.2177V3.44827C61.2177 3.28836 61.1514 3.14843 61.0189 3.02848C60.9084 2.90854 60.7649 2.84857 60.5881 2.84857H58.5006C58.3238 2.84857 58.1692 2.90854 58.0367 3.02848C57.9262 3.14843 57.871 3.28836 57.871 3.44827V9.95502Z" fill="url(#paint3_linear_13_205)"/>
<path d="M81.2104 5.3973H76.8033V3.86807C76.8033 3.70815 76.737 3.56822 76.6045 3.44827C76.494 3.32833 76.3504 3.26836 76.1737 3.26836H74.3512C74.1745 3.26836 74.0199 3.32833 73.8873 3.44827C73.7769 3.56822 73.7216 3.70815 73.7216 3.86807V7.31634C73.7216 7.47626 73.7769 7.61619 73.8873 7.73613C74.0199 7.85607 74.1745 7.91604 74.3512 7.91604H77.3335C80.0727 7.95602 81.4423 9.27536 81.4423 11.8741V16.042C81.4423 18.6807 80.0727 20 77.3335 20H73.4234C70.6842 20 69.3145 18.6807 69.3145 16.042V14.033H73.7216V16.1919C73.7216 16.3518 73.7769 16.4918 73.8873 16.6117C74.0199 16.7316 74.1745 16.7916 74.3512 16.7916H76.4056C76.5824 16.7916 76.726 16.7316 76.8364 16.6117C76.969 16.4918 77.0352 16.3518 77.0352 16.1919V12.3838C77.0352 12.2239 76.969 12.084 76.8364 11.964C76.726 11.8441 76.5824 11.7841 76.4056 11.7841H73.4234C70.6842 11.7841 69.3145 10.4648 69.3145 7.82609V3.95802C69.3145 1.31934 70.6842 0 73.4234 0H77.1015C79.8407 0 81.2104 1.31934 81.2104 3.95802V5.3973Z" fill="url(#paint4_linear_13_205)"/>
<path d="M89.1301 0.29985V19.7002H84.4911V0.29985H89.1301Z" fill="url(#paint5_linear_13_205)"/>
<path d="M104.477 5.3973H100.07V3.86807C100.07 3.70815 100.003 3.56822 99.8708 3.44827C99.7604 3.32833 99.6168 3.26836 99.4401 3.26836H97.6176C97.4409 3.26836 97.2862 3.32833 97.1537 3.44827C97.0432 3.56822 96.988 3.70815 96.988 3.86807V7.31634C96.988 7.47626 97.0432 7.61619 97.1537 7.73613C97.2862 7.85607 97.4409 7.91604 97.6176 7.91604H100.6C103.339 7.95602 104.709 9.27536 104.709 11.8741V16.042C104.709 18.6807 103.339 20 100.6 20H96.6898C93.9505 20 92.5809 18.6807 92.5809 16.042V14.033H96.988V16.1919C96.988 16.3518 97.0432 16.4918 97.1537 16.6117C97.2862 16.7316 97.4409 16.7916 97.6176 16.7916H99.672C99.8488 16.7916 99.9923 16.7316 100.103 16.6117C100.235 16.4918 100.302 16.3518 100.302 16.1919V12.3838C100.302 12.2239 100.235 12.084 100.103 11.964C99.9923 11.8441 99.8488 11.7841 99.672 11.7841H96.6898C93.9505 11.7841 92.5809 10.4648 92.5809 7.82609V3.95802C92.5809 1.31934 93.9505 0 96.6898 0H100.368C103.107 0 104.477 1.31934 104.477 3.95802V5.3973Z" fill="url(#paint6_linear_13_205)"/>
<path d="M106.531 3.86807V0.29985H118.129V3.86807H114.65V19.7002H110.011V3.86807H106.531Z" fill="url(#paint7_linear_13_205)"/>
<path d="M124.887 16.2219H130.023V19.7002H120.248V0.29985H130.023V3.71814H124.887V8.27586H129.692V11.5742H124.887V16.2219Z" fill="url(#paint8_linear_13_205)"/>
<path d="M145 19.7002H140.361V3.5982C140.361 3.43828 140.295 3.29835 140.162 3.17841C140.052 3.05847 139.908 2.9985 139.731 2.9985H137.942C137.765 2.9985 137.611 3.05847 137.478 3.17841C137.368 3.29835 137.312 3.43828 137.312 3.5982V19.7002H132.673V3.95802C132.673 1.31934 134.043 0 136.782 0H140.891C143.63 0 145 1.31934 145 3.95802V19.7002Z" fill="url(#paint9_linear_13_205)"/>
<defs>
<linearGradient id="paint0_linear_13_205" x1="0" y1="10" x2="145" y2="10" gradientUnits="userSpaceOnUse">
<stop stop-color="#171F22"/>
<stop offset="1" stop-color="#274688"/>
</linearGradient>
<linearGradient id="paint1_linear_13_205" x1="0" y1="10" x2="145" y2="10" gradientUnits="userSpaceOnUse">
<stop stop-color="#171F22"/>
<stop offset="1" stop-color="#274688"/>
</linearGradient>
<linearGradient id="paint2_linear_13_205" x1="0" y1="10" x2="145" y2="10" gradientUnits="userSpaceOnUse">
<stop stop-color="#171F22"/>
<stop offset="1" stop-color="#274688"/>
</linearGradient>
<linearGradient id="paint3_linear_13_205" x1="0" y1="10" x2="145" y2="10" gradientUnits="userSpaceOnUse">
<stop stop-color="#171F22"/>
<stop offset="1" stop-color="#274688"/>
</linearGradient>
<linearGradient id="paint4_linear_13_205" x1="0" y1="10" x2="145" y2="10" gradientUnits="userSpaceOnUse">
<stop stop-color="#171F22"/>
<stop offset="1" stop-color="#274688"/>
</linearGradient>
<linearGradient id="paint5_linear_13_205" x1="0" y1="10" x2="145" y2="10" gradientUnits="userSpaceOnUse">
<stop stop-color="#171F22"/>
<stop offset="1" stop-color="#274688"/>
</linearGradient>
<linearGradient id="paint6_linear_13_205" x1="0" y1="10" x2="145" y2="10" gradientUnits="userSpaceOnUse">
<stop stop-color="#171F22"/>
<stop offset="1" stop-color="#274688"/>
</linearGradient>
<linearGradient id="paint7_linear_13_205" x1="0" y1="10" x2="145" y2="10" gradientUnits="userSpaceOnUse">
<stop stop-color="#171F22"/>
<stop offset="1" stop-color="#274688"/>
</linearGradient>
<linearGradient id="paint8_linear_13_205" x1="0" y1="10" x2="145" y2="10" gradientUnits="userSpaceOnUse">
<stop stop-color="#171F22"/>
<stop offset="1" stop-color="#274688"/>
</linearGradient>
<linearGradient id="paint9_linear_13_205" x1="0" y1="10" x2="145" y2="10" gradientUnits="userSpaceOnUse">
<stop stop-color="#171F22"/>
<stop offset="1" stop-color="#274688"/>
</linearGradient>
</defs>
</svg>
