<svg width="155" height="30" viewBox="0 0 155 30" fill="none" xmlns="http://www.w3.org/2000/svg">
<g filter="url(#filter0_d_13_205)">
<path d="M13.3834 1.29985C16.1226 1.29985 17.4923 2.61919 17.4923 5.25787V9.12594C17.4923 11.7646 16.1226 13.084 13.3834 13.084H9.63904V20.7002H5V1.29985H13.3834ZM12.8532 9.6057V4.77811C12.8532 4.61819 12.787 4.47826 12.6544 4.35832C12.544 4.23838 12.4004 4.17841 12.2236 4.17841H9.63904V10.2054H12.2236C12.4004 10.2054 12.544 10.1454 12.6544 10.0255C12.787 9.90555 12.8532 9.76562 12.8532 9.6057Z" fill="url(#paint0_linear_13_205)"/>
<path d="M28.3373 1C31.0766 1 32.4462 2.31934 32.4462 4.95802V20.7002H27.8071V14.1934H24.4604V20.7002H19.8214V4.95802C19.8214 2.31934 21.191 1 23.9302 1H28.3373ZM24.4604 10.955H27.8071V4.44827C27.8071 4.28836 27.7409 4.14843 27.6083 4.02848C27.4979 3.90854 27.3543 3.84857 27.1776 3.84857H25.09C24.9133 3.84857 24.7586 3.90854 24.6261 4.02848C24.5156 4.14843 24.4604 4.28836 24.4604 4.44827V10.955Z" fill="url(#paint1_linear_13_205)"/>
<path d="M49.2578 1.29985L45.6128 10.2054L49.9536 20.7002H45.2152L42.0341 13.024H40.543V20.7002H35.904V1.29985H40.543V9.42579H41.6696L45.0164 1.29985H49.2578Z" fill="url(#paint2_linear_13_205)"/>
<path d="M66.7479 1C69.4871 1 70.8568 2.31934 70.8568 4.95802V20.7002H66.2177V14.1934H62.871V20.7002H58.2319V4.95802C58.2319 2.31934 59.6016 1 62.3408 1H66.7479ZM62.871 10.955H66.2177V4.44827C66.2177 4.28836 66.1514 4.14843 66.0189 4.02848C65.9084 3.90854 65.7649 3.84857 65.5881 3.84857H63.5006C63.3238 3.84857 63.1692 3.90854 63.0367 4.02848C62.9262 4.14843 62.871 4.28836 62.871 4.44827V10.955Z" fill="url(#paint3_linear_13_205)"/>
<path d="M86.2104 6.3973H81.8033V4.86807C81.8033 4.70815 81.737 4.56822 81.6045 4.44827C81.494 4.32833 81.3504 4.26836 81.1737 4.26836H79.3512C79.1745 4.26836 79.0199 4.32833 78.8873 4.44827C78.7769 4.56822 78.7216 4.70815 78.7216 4.86807V8.31634C78.7216 8.47626 78.7769 8.61619 78.8873 8.73613C79.0199 8.85607 79.1745 8.91604 79.3512 8.91604H82.3335C85.0727 8.95602 86.4423 10.2754 86.4423 12.8741V17.042C86.4423 19.6807 85.0727 21 82.3335 21H78.4234C75.6842 21 74.3145 19.6807 74.3145 17.042V15.033H78.7216V17.1919C78.7216 17.3518 78.7769 17.4918 78.8873 17.6117C79.0199 17.7316 79.1745 17.7916 79.3512 17.7916H81.4056C81.5824 17.7916 81.726 17.7316 81.8364 17.6117C81.969 17.4918 82.0352 17.3518 82.0352 17.1919V13.3838C82.0352 13.2239 81.969 13.084 81.8364 12.964C81.726 12.8441 81.5824 12.7841 81.4056 12.7841H78.4234C75.6842 12.7841 74.3145 11.4648 74.3145 8.82609V4.95802C74.3145 2.31934 75.6842 1 78.4234 1H82.1015C84.8407 1 86.2104 2.31934 86.2104 4.95802V6.3973Z" fill="url(#paint4_linear_13_205)"/>
<path d="M94.1301 1.29985V20.7002H89.4911V1.29985H94.1301Z" fill="url(#paint5_linear_13_205)"/>
<path d="M109.477 6.3973H105.07V4.86807C105.07 4.70815 105.003 4.56822 104.871 4.44827C104.76 4.32833 104.617 4.26836 104.44 4.26836H102.618C102.441 4.26836 102.286 4.32833 102.154 4.44827C102.043 4.56822 101.988 4.70815 101.988 4.86807V8.31634C101.988 8.47626 102.043 8.61619 102.154 8.73613C102.286 8.85607 102.441 8.91604 102.618 8.91604H105.6C108.339 8.95602 109.709 10.2754 109.709 12.8741V17.042C109.709 19.6807 108.339 21 105.6 21H101.69C98.9505 21 97.5809 19.6807 97.5809 17.042V15.033H101.988V17.1919C101.988 17.3518 102.043 17.4918 102.154 17.6117C102.286 17.7316 102.441 17.7916 102.618 17.7916H104.672C104.849 17.7916 104.992 17.7316 105.103 17.6117C105.235 17.4918 105.302 17.3518 105.302 17.1919V13.3838C105.302 13.2239 105.235 13.084 105.103 12.964C104.992 12.8441 104.849 12.7841 104.672 12.7841H101.69C98.9505 12.7841 97.5809 11.4648 97.5809 8.82609V4.95802C97.5809 2.31934 98.9505 1 101.69 1H105.368C108.107 1 109.477 2.31934 109.477 4.95802V6.3973Z" fill="url(#paint6_linear_13_205)"/>
<path d="M111.531 4.86807V1.29985H123.129V4.86807H119.65V20.7002H115.011V4.86807H111.531Z" fill="url(#paint7_linear_13_205)"/>
<path d="M129.887 17.2219H135.023V20.7002H125.248V1.29985H135.023V4.71814H129.887V9.27586H134.692V12.5742H129.887V17.2219Z" fill="url(#paint8_linear_13_205)"/>
<path d="M150 20.7002H145.361V4.5982C145.361 4.43828 145.295 4.29835 145.162 4.17841C145.052 4.05847 144.908 3.9985 144.731 3.9985H142.942C142.765 3.9985 142.611 4.05847 142.478 4.17841C142.368 4.29835 142.312 4.43828 142.312 4.5982V20.7002H137.673V4.95802C137.673 2.31934 139.043 1 141.782 1H145.891C148.63 1 150 2.31934 150 4.95802V20.7002Z" fill="url(#paint9_linear_13_205)"/>
</g>
<defs>
<filter id="filter0_d_13_205" x="0" y="0" width="155" height="30" filterUnits="userSpaceOnUse" color-interpolation-filters="sRGB">
<feFlood flood-opacity="0" result="BackgroundImageFix"/>
<feColorMatrix in="SourceAlpha" type="matrix" values="0 0 0 0 0 0 0 0 0 0 0 0 0 0 0 0 0 0 127 0" result="hardAlpha"/>
<feOffset dy="4"/>
<feGaussianBlur stdDeviation="2.5"/>
<feComposite in2="hardAlpha" operator="out"/>
<feColorMatrix type="matrix" values="0 0 0 0 0.152941 0 0 0 0 0.27451 0 0 0 0 0.533333 0 0 0 0.1 0"/>
<feBlend mode="normal" in2="BackgroundImageFix" result="effect1_dropShadow_13_205"/>
<feBlend mode="normal" in="SourceGraphic" in2="effect1_dropShadow_13_205" result="shape"/>
</filter>
<linearGradient id="paint0_linear_13_205" x1="5" y1="11" x2="150" y2="11" gradientUnits="userSpaceOnUse">
<stop stop-color="#171F22"/>
<stop offset="1" stop-color="#274688"/>
</linearGradient>
<linearGradient id="paint1_linear_13_205" x1="5" y1="11" x2="150" y2="11" gradientUnits="userSpaceOnUse">
<stop stop-color="#171F22"/>
<stop offset="1" stop-color="#274688"/>
</linearGradient>
<linearGradient id="paint2_linear_13_205" x1="5" y1="11" x2="150" y2="11" gradientUnits="userSpaceOnUse">
<stop stop-color="#171F22"/>
<stop offset="1" stop-color="#274688"/>
</linearGradient>
<linearGradient id="paint3_linear_13_205" x1="5" y1="11" x2="150" y2="11" gradientUnits="userSpaceOnUse">
<stop stop-color="#171F22"/>
<stop offset="1" stop-color="#274688"/>
</linearGradient>
<linearGradient id="paint4_linear_13_205" x1="5" y1="11" x2="150" y2="11" gradientUnits="userSpaceOnUse">
<stop stop-color="#171F22"/>
<stop offset="1" stop-color="#274688"/>
</linearGradient>
<linearGradient id="paint5_linear_13_205" x1="5" y1="11" x2="150" y2="11" gradientUnits="userSpaceOnUse">
<stop stop-color="#171F22"/>
<stop offset="1" stop-color="#274688"/>
</linearGradient>
<linearGradient id="paint6_linear_13_205" x1="5" y1="11" x2="150" y2="11" gradientUnits="userSpaceOnUse">
<stop stop-color="#171F22"/>
<stop offset="1" stop-color="#274688"/>
</linearGradient>
<linearGradient id="paint7_linear_13_205" x1="5" y1="11" x2="150" y2="11" gradientUnits="userSpaceOnUse">
<stop stop-color="#171F22"/>
<stop offset="1" stop-color="#274688"/>
</linearGradient>
<linearGradient id="paint8_linear_13_205" x1="5" y1="11" x2="150" y2="11" gradientUnits="userSpaceOnUse">
<stop stop-color="#171F22"/>
<stop offset="1" stop-color="#274688"/>
</linearGradient>
<linearGradient id="paint9_linear_13_205" x1="5" y1="11" x2="150" y2="11" gradientUnits="userSpaceOnUse">
<stop stop-color="#171F22"/>
<stop offset="1" stop-color="#274688"/>
</linearGradient>
</defs>
</svg>
