<svg width="22" height="22" viewBox="0 0 22 22" fill="none" xmlns="http://www.w3.org/2000/svg">
<path d="M16.5077 7.69502H5.52322C5.23189 7.69502 4.9525 7.81075 4.7465 8.01675C4.5405 8.22275 4.42477 8.50215 4.42477 8.79347C4.42477 9.0848 4.5405 9.3642 4.7465 9.5702C4.9525 9.7762 5.23189 9.89193 5.52322 9.89193H16.5077C16.7991 9.89193 17.0785 9.7762 17.2845 9.5702C17.4905 9.3642 17.6062 9.0848 17.6062 8.79347C17.6062 8.50215 17.4905 8.22275 17.2845 8.01675C17.0785 7.81075 16.7991 7.69502 16.5077 7.69502ZM12.1139 12.0888H5.52322C5.23189 12.0888 4.9525 12.2046 4.7465 12.4106C4.5405 12.6166 4.42477 12.896 4.42477 13.1873C4.42477 13.4786 4.5405 13.758 4.7465 13.964C4.9525 14.17 5.23189 14.2857 5.52322 14.2857H12.1139C12.4053 14.2857 12.6847 14.17 12.8907 13.964C13.0967 13.758 13.2124 13.4786 13.2124 13.1873C13.2124 12.896 13.0967 12.6166 12.8907 12.4106C12.6847 12.2046 12.4053 12.0888 12.1139 12.0888ZM11.0155 0.00585938C9.57297 0.00585937 8.14459 0.289982 6.81189 0.842006C5.47918 1.39403 4.26826 2.20314 3.24825 3.22315C1.18826 5.28315 0.0309614 8.0771 0.0309614 10.9904C0.0213585 13.5269 0.899609 15.9867 2.51346 17.9436L0.316559 20.1405C0.16414 20.295 0.0608899 20.4911 0.0198362 20.7042C-0.0212174 20.9173 0.0017651 21.1378 0.0858839 21.3378C0.177119 21.5354 0.325021 21.7015 0.510817 21.8149C0.696612 21.9284 0.911921 21.9841 1.12941 21.9749H11.0155C13.9288 21.9749 16.7227 20.8176 18.7827 18.7576C20.8427 16.6976 22 13.9037 22 10.9904C22 8.0771 20.8427 5.28315 18.7827 3.22315C16.7227 1.16315 13.9288 0.00585938 11.0155 0.00585938ZM11.0155 19.778H3.77668L4.79824 18.7564C5.00283 18.5506 5.11766 18.2722 5.11766 17.982C5.11766 17.6918 5.00283 17.4134 4.79824 17.2076C3.35991 15.7709 2.46422 13.8799 2.26377 11.8568C2.06333 9.83376 2.57052 7.80378 3.69894 6.11273C4.82737 4.42168 6.5072 3.17419 8.45226 2.5828C10.3973 1.99141 12.4873 2.0927 14.366 2.86943C16.2447 3.64615 17.7961 5.05025 18.7557 6.8425C19.7152 8.63476 20.0237 10.7043 19.6286 12.6985C19.2334 14.6927 18.1591 16.4882 16.5885 17.7791C15.018 19.07 13.0485 19.7764 11.0155 19.778Z" fill="#171F22"/>
</svg>
