<svg width="22" height="22" viewBox="0 0 22 22" fill="none" xmlns="http://www.w3.org/2000/svg">
<path d="M17.5934 8.8C18.4636 8.8 19.3143 8.54194 20.0379 8.05847C20.7615 7.57499 21.3254 6.8878 21.6584 6.08381C21.9915 5.27981 22.0786 4.39512 21.9088 3.5416C21.7391 2.68809 21.32 1.90408 20.7046 1.28873C20.0893 0.673381 19.3053 0.254322 18.4518 0.0845467C17.5983 -0.0852282 16.7136 0.00190644 15.9096 0.334932C15.1056 0.667957 14.4184 1.23192 13.9349 1.95549C13.4514 2.67907 13.1934 3.52976 13.1934 4.4C13.1934 5.56695 13.657 6.68611 14.4821 7.51127C15.3073 8.33643 16.4264 8.8 17.5934 8.8ZM17.5934 2.2C18.0285 2.2 18.4538 2.32903 18.8156 2.57077C19.1774 2.81251 19.4594 3.1561 19.6259 3.5581C19.7924 3.96009 19.836 4.40244 19.7511 4.8292C19.6662 5.25596 19.4567 5.64796 19.149 5.95564C18.8413 6.26331 18.4493 6.47284 18.0226 6.55773C17.5958 6.64262 17.1535 6.59905 16.7515 6.43254C16.3495 6.26602 16.0059 5.98404 15.7641 5.62226C15.5224 5.26047 15.3934 4.83512 15.3934 4.4C15.3934 3.81653 15.6252 3.25695 16.0377 2.84437C16.4503 2.43179 17.0099 2.2 17.5934 2.2ZM16.3284 11.517C16.2297 11.3578 16.0921 11.2265 15.9284 11.1354C15.7648 11.0443 15.5807 10.9965 15.3934 10.9965C15.2061 10.9965 15.0219 11.0443 14.8583 11.1354C14.6947 11.2265 14.557 11.3578 14.4584 11.517L13.3584 13.31L9.73938 7.15C9.64198 6.98586 9.50355 6.84988 9.33769 6.75543C9.17183 6.66099 8.98425 6.61132 8.79338 6.61132C8.60252 6.61132 8.41493 6.66099 8.24907 6.75543C8.08321 6.84988 7.94478 6.98586 7.84738 7.15L0.147384 20.35C0.0511146 20.5167 0.000293805 20.7058 1.2701e-06 20.8983C-0.000291265 21.0909 0.0499545 21.2801 0.145717 21.4471C0.241479 21.6142 0.379403 21.7531 0.545703 21.8502C0.712004 21.9472 0.900856 21.9988 1.09338 22H20.8934C21.0899 22.0004 21.283 21.9481 21.4525 21.8486C21.622 21.7491 21.7617 21.606 21.8572 21.4342C21.9526 21.2624 22.0003 21.0682 21.9952 20.8717C21.9902 20.6752 21.9325 20.4837 21.8284 20.317L16.3284 11.517ZM9.28838 19.8H3.00738L8.79338 9.9L12.0274 15.4L10.6524 17.6L9.28838 19.8ZM11.8734 19.8L13.5124 17.193L14.2934 16.027L15.3934 14.179L18.9134 19.8H11.8734Z" fill="black"/>
</svg>
