<svg width="22" height="22" viewBox="0 0 22 22" fill="none" xmlns="http://www.w3.org/2000/svg">
<path d="M18.7 0.00585938H3.3C2.42479 0.00585938 1.58542 0.353537 0.966548 0.972407C0.347678 1.59128 0 2.43065 0 3.30586V18.7059C0 19.5811 0.347678 20.4204 0.966548 21.0393C1.58542 21.6582 2.42479 22.0059 3.3 22.0059H18.7C18.8809 22.0033 19.0613 21.9849 19.239 21.9509L19.569 21.8739H19.701L20.108 21.7199L20.251 21.6429C20.361 21.5769 20.482 21.5219 20.592 21.4449C20.7389 21.3368 20.8785 21.2192 21.01 21.0929L21.087 20.9939C21.195 20.8844 21.2943 20.7667 21.384 20.6419L21.483 20.4989C21.5598 20.3764 21.6261 20.2476 21.681 20.1139C21.7112 20.0611 21.7369 20.0059 21.758 19.9489C21.813 19.8169 21.846 19.6739 21.89 19.5309V19.3659C21.9524 19.1509 21.9893 18.9294 22 18.7059V3.30586C22 2.43065 21.6523 1.59128 21.0335 0.972407C20.4146 0.353537 19.5752 0.00585938 18.7 0.00585938ZM3.3 19.8059C3.00826 19.8059 2.72847 19.69 2.52218 19.4837C2.31589 19.2774 2.2 18.9976 2.2 18.7059V13.9649L5.819 10.3349C5.92126 10.2318 6.04292 10.1499 6.17697 10.0941C6.31101 10.0382 6.45479 10.0095 6.6 10.0095C6.74521 10.0095 6.88899 10.0382 7.02303 10.0941C7.15708 10.1499 7.27874 10.2318 7.381 10.3349L16.841 19.8059H3.3ZM19.8 18.7059C19.799 18.8415 19.7729 18.9757 19.723 19.1019C19.6979 19.1555 19.6684 19.207 19.635 19.2559C19.6056 19.3024 19.5725 19.3466 19.536 19.3879L13.651 13.5029L14.619 12.5349C14.7213 12.4318 14.8429 12.3499 14.977 12.2941C15.111 12.2382 15.2548 12.2095 15.4 12.2095C15.5452 12.2095 15.689 12.2382 15.823 12.2941C15.9571 12.3499 16.0787 12.4318 16.181 12.5349L19.8 16.1649V18.7059ZM19.8 13.0519L17.732 11.0059C17.1025 10.4086 16.2678 10.0756 15.4 10.0756C14.5322 10.0756 13.6975 10.4086 13.068 11.0059L12.1 11.9739L8.932 8.80586C8.30249 8.20855 7.46779 7.87557 6.6 7.87557C5.73221 7.87557 4.89751 8.20855 4.268 8.80586L2.2 10.8519V3.30586C2.2 3.01412 2.31589 2.73433 2.52218 2.52804C2.72847 2.32175 3.00826 2.20586 3.3 2.20586H18.7C18.9917 2.20586 19.2715 2.32175 19.4778 2.52804C19.6841 2.73433 19.8 3.01412 19.8 3.30586V13.0519ZM12.65 4.40586C12.3237 4.40586 12.0047 4.50263 11.7333 4.68393C11.462 4.86524 11.2505 5.12293 11.1256 5.42443C11.0007 5.72593 10.968 6.05769 11.0317 6.37776C11.0954 6.69783 11.2525 6.99183 11.4833 7.22259C11.714 7.45334 12.008 7.61049 12.3281 7.67416C12.6482 7.73782 12.9799 7.70515 13.2814 7.58026C13.5829 7.45538 13.8406 7.24389 14.0219 6.97255C14.2032 6.70121 14.3 6.3822 14.3 6.05586C14.3 5.61825 14.1262 5.19857 13.8167 4.88913C13.5073 4.5797 13.0876 4.40586 12.65 4.40586Z" fill="#171F22"/>
</svg>
