<svg width="27" height="22" viewBox="0 0 27 22" fill="none" xmlns="http://www.w3.org/2000/svg">
<path d="M20.7778 11.0059C20.4536 11.0059 20.1427 11.1346 19.9135 11.3638C19.6843 11.5931 19.5556 11.9039 19.5556 12.2281V12.6925L17.7467 10.8836C17.108 10.25 16.2447 9.8944 15.345 9.8944C14.4453 9.8944 13.582 10.25 12.9433 10.8836L12.0878 11.7392L9.05667 8.70808C8.40903 8.0916 7.54914 7.74776 6.655 7.74776C5.76086 7.74776 4.90097 8.0916 4.25333 8.70808L2.44444 10.517V3.67253C2.44444 3.34837 2.57321 3.0375 2.80243 2.80828C3.03164 2.57907 3.34251 2.4503 3.66667 2.4503H13.4444C13.7686 2.4503 14.0795 2.32153 14.3087 2.09232C14.5379 1.86311 14.6667 1.55224 14.6667 1.22808C14.6667 0.903928 14.5379 0.593051 14.3087 0.36384C14.0795 0.134629 13.7686 0.00585938 13.4444 0.00585938H3.66667C2.69421 0.00585938 1.76158 0.392168 1.07394 1.0798C0.386309 1.76743 0 2.70007 0 3.67253V18.3392C0 19.3117 0.386309 20.2443 1.07394 20.9319C1.76158 21.6196 2.69421 22.0059 3.66667 22.0059H18.3333C19.3058 22.0059 20.2384 21.6196 20.9261 20.9319C21.6137 20.2443 22 19.3117 22 18.3392V12.2281C22 11.9039 21.8712 11.5931 21.642 11.3638C21.4128 11.1346 21.1019 11.0059 20.7778 11.0059ZM3.66667 19.5614C3.34251 19.5614 3.03164 19.4326 2.80243 19.2034C2.57321 18.9742 2.44444 18.6633 2.44444 18.3392V13.9759L5.98889 10.4314C6.16845 10.2603 6.40697 10.1649 6.655 10.1649C6.90303 10.1649 7.14155 10.2603 7.32111 10.4314L16.4511 19.5614H3.66667ZM19.5556 18.3392C19.5538 18.5732 19.4766 18.8003 19.3356 18.987L13.8233 13.4503L14.6789 12.5947C14.7665 12.5053 14.8711 12.4343 14.9865 12.3858C15.102 12.3373 15.2259 12.3123 15.3511 12.3123C15.4763 12.3123 15.6003 12.3373 15.7157 12.3858C15.8311 12.4343 15.9357 12.5053 16.0233 12.5947L19.5556 16.1514V18.3392Z" fill="#171F22"/>
<path fill-rule="evenodd" clip-rule="evenodd" d="M14.6056 3.67253H18.6389C18.9326 3.67253 19.2225 3.77816 19.4431 3.97866C19.6652 4.18056 19.8 4.46494 19.8 4.77253C19.8 5.08012 19.6652 5.36449 19.4431 5.5664C19.2225 5.76689 18.9326 5.87253 18.6389 5.87253H17.7833V8.43919C17.7833 8.74678 17.6485 9.03116 17.4264 9.23306C17.2059 9.43356 16.9159 9.53919 16.6222 9.53919C16.3285 9.53919 16.0386 9.43356 15.818 9.23306C15.5959 9.03116 15.4611 8.74678 15.4611 8.43919V5.87253H14.6056C14.3119 5.87253 14.0219 5.76689 13.8014 5.5664C13.5793 5.36449 13.4444 5.08012 13.4444 4.77253C13.4444 4.46494 13.5793 4.18056 13.8014 3.97866C14.0219 3.77816 14.3119 3.67253 14.6056 3.67253ZM17.4167 0.00585938H25.4833C25.777 0.00585938 26.067 0.111498 26.2875 0.31199C26.5096 0.513893 26.6444 0.798271 26.6444 1.10586C26.6444 1.41345 26.5096 1.69783 26.2875 1.89973C26.067 2.10022 25.777 2.20586 25.4833 2.20586H22.6111V8.43919C22.6111 8.74678 22.4763 9.03116 22.2542 9.23306C22.0337 9.43356 21.7437 9.53919 21.45 9.53919C21.1563 9.53919 20.8663 9.43355 20.6458 9.23306C20.4237 9.03116 20.2889 8.74678 20.2889 8.43919V2.20586H17.4167C17.123 2.20586 16.833 2.10022 16.6125 1.89973C16.3904 1.69783 16.2556 1.41345 16.2556 1.10586C16.2556 0.79827 16.3904 0.513892 16.6125 0.31199C16.833 0.111498 17.123 0.00585938 17.4167 0.00585938Z" fill="#171F22"/>
</svg>
