<svg width="23" height="23" viewBox="0 0 23 23" fill="none" xmlns="http://www.w3.org/2000/svg">
<path d="M22.6444 8.50719C22.6433 7.57978 22.2744 6.69066 21.6186 6.03488C20.9628 5.37909 20.0737 5.01018 19.1463 5.00906C18.6265 5.01185 18.1141 5.13179 17.6471 5.35994V3.50986C17.6481 2.81444 17.4416 2.13454 17.0539 1.55723C16.6662 0.979916 16.115 0.53148 15.4708 0.269354C14.8267 0.00722667 14.119 -0.0566573 13.4384 0.0858836C12.7577 0.228425 12.1351 0.570901 11.6503 1.06945C11.0749 0.471119 10.3049 0.0977994 9.47882 0.0166852C8.65273 -0.064429 7.82481 0.15199 7.14408 0.626988C6.46335 1.10199 5.97453 1.80437 5.76559 2.60771C5.55665 3.41105 5.64131 4.26259 6.00435 5.00906H4.15427C3.45885 5.008 2.77895 5.21455 2.20164 5.60225C1.62433 5.98996 1.17589 6.54117 0.913763 7.1853C0.651636 7.82942 0.587752 8.53713 0.730293 9.21778C0.872834 9.89843 1.21531 10.521 1.71386 11.0059C1.11553 11.5812 0.742209 12.3512 0.661094 13.1773C0.57998 14.0034 0.796399 14.8313 1.2714 15.5121C1.7464 16.1928 2.44878 16.6816 3.25212 16.8905C4.05546 17.0995 4.907 17.0148 5.65347 16.6518V18.5019C5.65241 19.1973 5.85896 19.8772 6.24666 20.4545C6.63437 21.0318 7.18558 21.4802 7.8297 21.7424C8.47383 22.0045 9.18154 22.0684 9.86219 21.9258C10.5428 21.7833 11.1654 21.4408 11.6503 20.9423C12.2256 21.5406 12.9956 21.9139 13.8217 21.995C14.6478 22.0762 15.4757 21.8597 16.1565 21.3847C16.8372 20.9097 17.326 20.2074 17.535 19.404C17.7439 18.6007 17.6592 17.7491 17.2962 17.0027H19.1463C19.8417 17.0037 20.5216 16.7972 21.0989 16.4095C21.6762 16.0218 22.1247 15.4706 22.3868 14.8264C22.6489 14.1823 22.7128 13.4746 22.5702 12.7939C22.4277 12.1133 22.0852 11.4907 21.5867 11.0059C21.9212 10.6813 22.1871 10.2929 22.3688 9.86374C22.5505 9.43454 22.6442 8.97326 22.6444 8.50719ZM12.6497 3.50986C12.6497 3.11225 12.8077 2.73092 13.0888 2.44976C13.37 2.16861 13.7513 2.01066 14.1489 2.01066C14.5466 2.01066 14.9279 2.16861 15.209 2.44976C15.4902 2.73092 15.6481 3.11225 15.6481 3.50986V8.50719C15.6481 8.90481 15.4902 9.28614 15.209 9.56729C14.9279 9.84844 14.5466 10.0064 14.1489 10.0064C13.7513 10.0064 13.37 9.84844 13.0888 9.56729C12.8077 9.28614 12.6497 8.90481 12.6497 8.50719V3.50986ZM5.65347 13.5045C5.65347 13.801 5.56554 14.0909 5.40081 14.3374C5.23607 14.584 5.00193 14.7761 4.72799 14.8896C4.45404 15.0031 4.1526 15.0328 3.86179 14.9749C3.57097 14.9171 3.30384 14.7743 3.09417 14.5646C2.88451 14.355 2.74172 14.0878 2.68387 13.797C2.62603 13.5062 2.65572 13.2048 2.76919 12.9308C2.88266 12.6569 3.07481 12.4227 3.32136 12.258C3.5679 12.0933 3.85775 12.0053 4.15427 12.0053H5.65347V13.5045ZM10.6508 18.5019C10.6508 18.8995 10.4929 19.2808 10.2117 19.562C9.93054 19.8431 9.54922 20.0011 9.1516 20.0011C8.75399 20.0011 8.37266 19.8431 8.09151 19.562C7.81035 19.2808 7.6524 18.8995 7.6524 18.5019V13.5045C7.6524 13.1069 7.81035 12.7256 8.09151 12.4444C8.37266 12.1633 8.75399 12.0053 9.1516 12.0053C9.54922 12.0053 9.93054 12.1633 10.2117 12.4444C10.4929 12.7256 10.6508 13.1069 10.6508 13.5045V18.5019ZM9.1516 10.0064H4.15427C3.75665 10.0064 3.37533 9.84844 3.09417 9.56729C2.81302 9.28614 2.65507 8.90481 2.65507 8.50719C2.65507 8.10958 2.81302 7.72825 3.09417 7.4471C3.37533 7.16594 3.75665 7.00799 4.15427 7.00799H9.1516C9.54922 7.00799 9.93054 7.16594 10.2117 7.4471C10.4929 7.72825 10.6508 8.10958 10.6508 8.50719C10.6508 8.90481 10.4929 9.28614 10.2117 9.56729C9.93054 9.84844 9.54922 10.0064 9.1516 10.0064ZM10.6508 5.00906H9.1516C8.85509 5.00906 8.56523 4.92113 8.31869 4.7564C8.07215 4.59166 7.87999 4.35752 7.76652 4.08358C7.65305 3.80964 7.62336 3.5082 7.68121 3.21738C7.73906 2.92656 7.88184 2.65943 8.09151 2.44976C8.30118 2.2401 8.56831 2.09731 8.85912 2.03946C9.14994 1.98162 9.45138 2.01131 9.72532 2.12478C9.99927 2.23825 10.2334 2.43041 10.3981 2.67695C10.5629 2.92349 10.6508 3.21334 10.6508 3.50986V5.00906ZM11.6503 11.0641C11.6309 11.0444 11.6118 11.0252 11.592 11.0059C11.6118 10.9865 11.6309 10.9674 11.6503 10.9476C11.6696 10.9674 11.6888 10.9865 11.7085 11.0059C11.6888 11.0252 11.6696 11.0444 11.6503 11.0641ZM14.1489 20.0011C13.7515 20.0006 13.3704 19.8425 13.0893 19.5615C12.8083 19.2804 12.6502 18.8993 12.6497 18.5019V17.0027H14.1489C14.5466 17.0027 14.9279 17.1606 15.209 17.4418C15.4902 17.7229 15.6481 18.1043 15.6481 18.5019C15.6481 18.8995 15.4902 19.2808 15.209 19.562C14.9279 19.8431 14.5466 20.0011 14.1489 20.0011ZM19.1463 15.0037H14.1489C13.7513 15.0037 13.37 14.8458 13.0888 14.5646C12.8077 14.2835 12.6497 13.9021 12.6497 13.5045C12.6497 13.1069 12.8077 12.7256 13.0888 12.4444C13.37 12.1633 13.7513 12.0053 14.1489 12.0053H19.1463C19.5439 12.0053 19.9252 12.1633 20.2064 12.4444C20.4875 12.7256 20.6455 13.1069 20.6455 13.5045C20.6455 13.9021 20.4875 14.2835 20.2064 14.5646C19.9252 14.8458 19.5439 15.0037 19.1463 15.0037ZM19.1463 10.0064H17.6471V8.50719C17.6471 8.21068 17.735 7.92083 17.8997 7.67428C18.0645 7.42774 18.2986 7.23558 18.5726 7.12211C18.8465 7.00864 19.1479 6.97895 19.4388 7.0368C19.7296 7.09465 19.9967 7.23743 20.2064 7.4471C20.416 7.65677 20.5588 7.9239 20.6167 8.21471C20.6745 8.50553 20.6448 8.80697 20.5314 9.08091C20.4179 9.35486 20.2257 9.589 19.9792 9.75373C19.7326 9.91847 19.4428 10.0064 19.1463 10.0064Z" fill="#171F22"/>
</svg>
